<svg width="21" height="20" viewBox="0 0 21 20" fill="none" xmlns="http://www.w3.org/2000/svg">
<g clip-path="url(#clip0_2_1313)">
<path d="M16.3284 4.48151C17.7997 6.33942 17.6074 8.96866 17.6074 10.708H19.7551C19.7551 8.89389 19.79 8.43399 19.6179 7.66541C19.2364 5.95169 18.0659 4.71176 16.3284 4.48151Z" fill="#4888FF" fill-opacity="0.5"/>
<path d="M2.72459 10.708C2.72459 8.86533 2.69972 8.3331 2.83293 7.44489C2.98872 6.40393 3.34731 5.30469 4.00374 4.48193C2.44017 4.66885 1.13081 5.79404 0.714096 7.66492C0.541977 8.43427 0.577072 8.8931 0.577072 10.708H2.72459Z" fill="#4888FF" fill-opacity="0.5"/>
<path d="M4.02204 7.6233C3.90363 8.41356 3.92713 8.86842 3.92713 10.708H5.54639V10.0835C5.54639 8.70027 6.67203 7.57478 8.05524 7.57478H12.2767C13.6599 7.57478 14.7856 8.70027 14.7856 10.0835V10.708H16.4049C16.4049 8.87697 16.4283 8.41447 16.3099 7.6233C16.0985 6.20897 15.3589 4.45192 13.9758 4.45192C5.75696 4.45192 6.26371 4.43757 6.04505 4.48518C5.0543 4.69957 4.27945 5.90166 4.02204 7.6233Z" fill="#4888FF" fill-opacity="0.5"/>
<path d="M14.6425 13.1302H18.1309C18.4631 13.1302 18.7321 13.3996 18.7321 13.7315V18.0784C18.7321 18.4105 18.463 18.6796 18.1309 18.6796H2.1185C1.78647 18.6796 1.5173 18.4105 1.5173 18.0784V13.7315C1.5173 13.3996 1.78632 13.1302 2.1185 13.1302H5.68951C5.52686 12.6599 5.54639 12.3359 5.54639 11.9105H0.577057V19.3326C0.577057 19.6647 0.846222 19.9339 1.17825 19.9339H19.1537C19.4857 19.9339 19.7551 19.6647 19.7551 19.3326V11.9105H14.7856C14.7856 12.3321 14.8057 12.6581 14.6425 13.1302Z" fill="#4888FF" fill-opacity="0.5"/>
<path d="M2.71985 14.3328V17.4773H2.72458H17.5296V14.3328C15.9677 14.3328 16.912 14.3328 13.7826 14.3328C13.464 14.5821 13.0864 14.7596 12.6744 14.8398C12.6744 16.0767 11.9108 16.7025 11.0411 16.7025H9.21719C8.39795 16.7025 7.58344 16.1357 7.58344 14.8241C7.20029 14.738 6.84918 14.5673 6.55011 14.3328C6.02719 14.3328 3.00626 14.3328 2.71985 14.3328Z" fill="#4888FF" fill-opacity="0.5"/>
<path d="M12.2767 8.77716H8.05524C7.33533 8.77716 6.74893 9.36325 6.74893 10.0835V12.2769C6.74893 13.0148 7.33044 13.6853 8.18463 13.6853C8.51437 13.6853 8.78598 13.9529 8.78598 14.2867V15.069C8.78598 15.3067 8.97916 15.4999 9.21719 15.4999H11.0411C11.2787 15.4999 11.4718 15.3067 11.4718 15.069C11.4718 14.6115 11.4718 14.7412 11.4718 14.2867C11.4718 14.0366 11.625 13.822 11.8423 13.7315C12.1077 13.6212 12.7653 13.8234 13.2945 13.1302C13.6215 12.7025 13.583 12.3201 13.583 11.9106C13.583 11.3007 13.583 10.692 13.583 10.0835C13.583 9.36325 12.9966 8.77716 12.2767 8.77716ZM9.15234 11.0992C9.15234 11.4325 8.88181 11.7004 8.55099 11.7004C8.22003 11.7004 7.9498 11.4322 7.9498 11.0992C7.9498 10.8376 7.9498 10.6645 7.9498 10.3954C7.9498 10.0635 8.21912 9.79416 8.55099 9.79416C8.88287 9.79416 9.15234 10.0635 9.15234 10.3954V11.0992ZM10.7672 12.9675C10.7672 13.299 10.498 13.5687 10.166 13.5687C9.83411 13.5687 9.56479 13.2993 9.56479 12.9675C9.56479 12.2527 9.53015 12.1181 9.69983 11.9106C9.80969 11.7751 9.978 11.6884 10.166 11.6884C10.4976 11.6884 10.7672 11.9579 10.7672 12.2897V12.9675ZM12.2703 11.3092C12.1853 11.5378 11.9653 11.7004 11.7068 11.7004C11.3757 11.7004 11.1055 11.4322 11.1055 11.0992C11.1055 10.8376 11.1055 10.6645 11.1055 10.3954C11.1055 10.0635 11.3749 9.79416 11.7068 9.79416C12.039 9.79416 12.308 10.0635 12.308 10.3954C12.308 11.1607 12.319 11.1794 12.2703 11.3092Z" fill="#4888FF" fill-opacity="0.5"/>
<path d="M19.4252 1.97049H19.0606V1.60596C19.0606 1.27393 18.7915 1.00476 18.4594 1.00476C18.1274 1.00476 17.8581 1.27393 17.8581 1.60596V1.97049H17.4937C17.1617 1.97049 16.8925 2.23965 16.8925 2.57169C16.8925 2.90372 17.1617 3.17288 17.4937 3.17288H17.8581V3.53741C17.8581 3.86945 18.1274 4.13861 18.4594 4.13861C18.7915 4.13861 19.0606 3.86945 19.0606 3.53741V3.17288H19.4252C19.7572 3.17288 20.0264 2.90372 20.0264 2.57169C20.0264 2.23965 19.7572 1.97049 19.4252 1.97049Z" fill="#4888FF" fill-opacity="0.5"/>
<path d="M13.8617 2.20734H14.2262V2.57172C14.2262 2.90375 14.4954 3.17291 14.8274 3.17291C15.1594 3.17291 15.4286 2.90375 15.4286 2.57172V2.20734H15.7931C16.1252 2.20734 16.3943 1.93802 16.3943 1.60599C16.3943 1.27396 16.1252 1.00479 15.7931 1.00479H15.4286V0.640259C15.4286 0.308228 15.1594 0.0390625 14.8274 0.0390625C14.4954 0.0390625 14.2262 0.308228 14.2262 0.640259V1.00479H13.8617C13.5296 1.00479 13.2605 1.27396 13.2605 1.60599C13.2605 1.93802 13.5296 2.20734 13.8617 2.20734Z" fill="#4888FF" fill-opacity="0.5"/>
<path d="M4.25961 2.20734H4.62415V2.57172C4.62415 2.90375 4.89331 3.17291 5.22534 3.17291C5.55737 3.17291 5.82654 2.90375 5.82654 2.57172V2.20734H6.19107C6.5231 2.20734 6.79227 1.93802 6.79227 1.60599C6.79227 1.27396 6.5231 1.00479 6.19107 1.00479H5.82654V0.640259C5.82654 0.308228 5.55737 0.0390625 5.22534 0.0390625C4.89331 0.0390625 4.62415 0.308228 4.62415 0.640259V1.00479H4.25961C3.92758 1.00479 3.65842 1.27396 3.65842 1.60599C3.65842 1.93802 3.92758 2.20734 4.25961 2.20734Z" fill="#4888FF" fill-opacity="0.5"/>
<path d="M0.992096 3.17288V3.53741C0.992096 3.86945 1.26126 4.13861 1.59329 4.13861C1.92532 4.13861 2.19464 3.86945 2.19464 3.53741V3.17288H2.55902C2.89105 3.17288 3.16022 2.90372 3.16022 2.57169C3.16022 2.23965 2.89105 1.97049 2.55902 1.97049H2.19464V1.60596C2.19464 1.27393 1.92532 1.00476 1.59329 1.00476C1.26126 1.00476 0.992096 1.27393 0.992096 1.60596V1.97049H0.627563C0.295532 1.97049 0.0263672 2.23965 0.0263672 2.57169C0.0263672 2.90372 0.295532 3.17288 0.627563 3.17288H0.992096Z" fill="#4888FF" fill-opacity="0.5"/>
</g>
<defs>
<clipPath id="clip0_2_1313">
<rect width="20" height="20" fill="white" transform="translate(0.0263672)"/>
</clipPath>
</defs>
</svg>
