<svg width="24" height="24" viewBox="0 0 24 24" fill="none" xmlns="http://www.w3.org/2000/svg">
<g clip-path="url(#clip0_1_2544)">
<path fill-rule="evenodd" clip-rule="evenodd" d="M15.2492 0.00557075L15.2484 0.00577868L1.34579 2.32291C1.14618 2.35607 1 2.52886 1 2.73108V21.2689C1 21.4713 1.14618 21.6439 1.34579 21.6771L15.2492 23.9944C15.2916 24.0016 15.3342 24.0017 15.376 23.9958L23.4861 22.8373C23.69 22.808 23.8414 22.6335 23.8414 22.4277V1.57249C23.8414 1.36653 23.69 1.19192 23.4861 1.16271L15.3757 0.00416722C15.3332 -0.00196674 15.2907 -0.001187 15.2492 0.00557075ZM15.7311 17.979V23.1091L17.2207 22.8962V16.6547L15.7311 17.979ZM1.82762 15.9643L14.9034 18.1436V23.0978L1.82762 20.9183V15.9643ZM20.9448 1.63564V13.1586C20.9448 13.2768 20.8942 13.3894 20.8058 13.4678L18.0481 15.9192V22.778C20.1807 22.4733 23.0136 22.0687 23.0136 22.0687V1.93143L20.9448 1.63564ZM2.78654 15.2853L14.9034 17.3046V14.9377L5.54163 13.9843L2.78654 15.2853ZM20.1172 1.51749L15.7311 0.890836V16.8716L20.1172 12.9727V1.51749ZM1.82762 4.73673V14.8229L5.05522 13.2986V4.19886L1.82762 4.73673ZM5.88263 4.06079V13.1872L14.9034 14.1058V2.55745L5.88263 4.06079ZM16.6413 2.73102V3.88956C16.6413 4.11797 16.8269 4.3035 17.0551 4.3035C17.2835 4.3035 17.469 4.11797 17.469 3.88956V2.73102C17.469 2.50261 17.2835 2.31729 17.0551 2.31729C16.8269 2.31735 16.6413 2.50261 16.6413 2.73102ZM14.9034 1.7185L1.82762 3.89772V3.0816L14.9034 0.902324V1.7185Z" fill="#4888FF" fill-opacity="0.5"/>
</g>
<defs>
<clipPath id="clip0_1_2544">
<rect width="24" height="24" fill="white"/>
</clipPath>
</defs>
</svg>
