<svg width="18" height="20" viewBox="0 0 18 20" fill="none" xmlns="http://www.w3.org/2000/svg">
<path d="M11.8977 15.5083C11.8977 14.4391 11.2244 13.8175 9.93355 12.7216C9.64188 12.4716 9.32688 12.2066 9.00188 11.9116C8.63105 12.2525 8.27855 12.5525 7.95522 12.8283C6.66688 13.9166 6.10271 14.4491 6.10271 15.5083C6.10271 16.2768 6.40799 17.0137 6.95137 17.5571C7.49476 18.1005 8.23175 18.4058 9.00022 18.4058C9.76868 18.4058 10.5057 18.1005 11.0491 17.5571C11.5924 17.0137 11.8977 16.2768 11.8977 15.5083Z" fill="#4888FF" fill-opacity="0.5"/>
<path d="M12.4412 3.3625C11.4412 2.51333 10.4078 1.63583 9.36285 0.591667L8.76785 0L8.18451 0.5925C6.30618 2.4775 5.41785 5.3725 5.03285 7.10917C4.73742 6.65171 4.51818 6.14935 4.38368 5.62167L4.02785 4.2575L3.00035 5.22167C1.20118 6.91167 0.000346834 8.5875 0.000346834 11.2708C-0.0169522 13.2071 0.613312 15.0936 1.791 16.6307C2.96869 18.1677 4.62626 19.2671 6.50035 19.7542C6.97124 19.8735 7.45077 19.9557 7.93451 20C6.88558 19.8045 5.93793 19.2486 5.25545 18.4284C4.57297 17.6082 4.19858 16.5753 4.19701 15.5083C4.19701 13.6333 5.32785 12.675 6.63701 11.5567C7.10451 11.1592 7.63701 10.7083 8.17451 10.1675L8.76785 9.5775L9.35785 10.1675C9.83785 10.6475 10.3178 11.0542 10.782 11.4492C12.0953 12.5633 13.3353 13.6158 13.3353 15.5083C13.334 16.5711 12.9626 17.6003 12.285 18.419C11.6074 19.2378 10.6658 19.795 9.62201 19.995C11.7891 19.7847 13.8002 18.7748 15.2631 17.1622C16.726 15.5495 17.5358 13.4498 17.5345 11.2725C17.5345 7.6875 15.1737 5.68333 12.4412 3.3625Z" fill="#4888FF" fill-opacity="0.5"/>
</svg>
