<svg width="21" height="21" viewBox="0 0 21 21" fill="none" xmlns="http://www.w3.org/2000/svg">
<path d="M10.5001 0C4.71074 0 0 4.6806 0 10.5001C0 16.3035 4.69618 21.0002 10.5001 21.0002C16.3126 21.0002 21.0002 16.294 21.0002 10.5001C21.0003 4.68535 16.2922 0 10.5001 0ZM9.28855 2.46798C8.12685 3.22153 7.31457 3.80002 7.13467 4.44233C6.82057 5.56413 8.81748 6.3801 9.37087 6.87143C10.375 7.76288 9.91352 9.97049 8.8635 10.9543C7.81349 11.938 7.42318 12.9358 7.53852 13.6861C7.68913 14.6659 8.79931 16.2236 9.39474 17.1901C9.99018 18.1566 9.35582 18.3752 8.52569 17.8816C7.90857 17.5147 5.06816 16.8223 4.20501 16.1952C3.34187 15.568 3.07149 13.4191 3.34417 12.5255C3.61684 11.632 3.93755 9.25217 2.57622 8.4654C2.2216 8.26044 1.95934 8.01623 1.76841 7.75016C2.97785 3.91848 6.63395 1.18487 10.8708 1.35427C10.2744 1.79171 9.68748 2.20921 9.28855 2.46798ZM18.263 12.2053C17.0943 12.0833 15.7374 11.8972 15.481 11.7565C14.4107 11.1695 14.763 10.3655 15.2063 9.19877C15.6495 8.03211 13.4227 7.01109 13.4227 5.609C13.4227 4.23865 14.2997 3.32961 15.3394 2.7334C17.9282 4.35226 19.6541 7.22819 19.6541 10.5001C19.6541 11.8072 19.3782 13.0508 18.8824 14.1767C18.8355 13.1888 18.9312 12.275 18.263 12.2053Z" fill="#343A3F" fill-opacity="0.5"/>
</svg>
