<svg width="22" height="21" viewBox="0 0 22 21" fill="none" xmlns="http://www.w3.org/2000/svg">
<path d="M16.0396 0.80011C15.0078 0.816159 13.9985 1.10419 13.1136 1.63511C12.2287 2.16603 11.4996 2.92104 10.9999 3.8239C10.5002 2.92104 9.7711 2.16603 8.88623 1.63511C8.00136 1.10419 6.99207 0.816159 5.96027 0.80011C4.31545 0.871573 2.76577 1.59111 1.64979 2.80152C0.533807 4.01194 -0.057766 5.61483 0.00431383 7.26003C0.00431383 11.4264 4.38973 15.9768 8.06776 19.062C8.88896 19.7521 9.92726 20.1304 10.9999 20.1304C12.0726 20.1304 13.1109 19.7521 13.9321 19.062C17.6101 15.9768 21.9955 11.4264 21.9955 7.26003C22.0576 5.61483 21.466 4.01194 20.35 2.80152C19.2341 1.59111 17.6844 0.871573 16.0396 0.80011Z" fill="#343A3F"/>
</svg>
