<svg width="21" height="20" viewBox="0 0 21 20" fill="none" xmlns="http://www.w3.org/2000/svg">
<path d="M17.4572 6.63066C17.3649 6.41539 17.1531 6.27586 16.9189 6.27586H12.8461L15.5602 0.847979C15.651 0.666414 15.6413 0.45063 15.5345 0.277894C15.4278 0.105118 15.2391 0 15.036 0L6.87702 0.000468755C6.63745 0.000468755 6.42202 0.14633 6.33303 0.368793L2.56736 9.78222C2.49514 9.96273 2.51717 10.1673 2.62619 10.3283C2.73518 10.4893 2.91694 10.5858 3.11139 10.5858H7.8945L4.45024 19.1964C4.34586 19.4573 4.44137 19.7556 4.67801 19.9073C4.77516 19.9696 4.88497 20 4.99403 20C5.15028 20 5.30509 19.9376 5.41908 19.8176L17.3437 7.26532C17.505 7.09551 17.5497 6.8459 17.4572 6.63066Z" fill="#4888FF" fill-opacity="0.5"/>
<path d="M17.4572 6.63066C17.3649 6.41539 17.1531 6.27586 16.9189 6.27586H12.8461L15.5602 0.847979C15.651 0.666414 15.6413 0.45063 15.5345 0.277894C15.4278 0.105118 15.2391 0 15.036 0L10.0151 0.000273441V14.9797L17.3436 7.26544C17.505 7.09551 17.5497 6.8459 17.4572 6.63066Z" fill="#4888FF" fill-opacity="0.5"/>
</svg>
