<svg width="24" height="24" viewBox="0 0 24 24" fill="none" xmlns="http://www.w3.org/2000/svg">
<path d="M8.74119 9.18374C9.48969 10.9342 11.7644 11.8012 13.4812 10.9545C15.7747 10.0215 16.2982 6.65324 14.4382 5.06849C11.6024 2.42474 7.12869 5.63549 8.74119 9.18374ZM15.9044 12.7545C15.1859 12.2977 14.3107 12.0525 13.4219 12.0435C13.3169 12.0405 10.3139 12.0345 10.3162 12.0585C7.85619 12.171 5.85894 14.25 5.85969 16.761C5.90169 17.1772 5.79219 18.441 5.92494 18.8295C6.05689 19.3869 6.37297 19.8836 6.82208 20.2392C7.27119 20.5948 7.82709 20.7886 8.39994 20.7892H15.5999C17.0129 20.7952 18.1544 19.6155 18.1402 18.249V16.761C18.1396 15.9581 17.9339 15.1687 17.5428 14.4676C17.1517 13.7665 16.588 13.1768 15.9052 12.7545H15.9044Z" fill="#4888FF" fill-opacity="0.5"/>
<path d="M3.4315 19.6188H5.07175C4.978 19.2393 5.0365 17.8525 5.02075 17.4415C5.04683 16.2107 5.46186 15.0198 6.20638 14.0393C6.95089 13.0589 7.98666 12.3393 9.16525 11.9837C8.95 11.8127 8.761 11.5848 8.58475 11.3815C8.4236 11.3607 8.26124 11.3506 8.09875 11.3515H5.449C4.26928 11.3531 3.13835 11.8225 2.30431 12.6569C1.47026 13.4912 1.00119 14.6223 1 15.802V17.1887C1.0002 17.8335 1.25646 18.4518 1.71243 18.9076C2.16841 19.3634 2.78676 19.6188 3.4315 19.6188ZM6.77725 10.8077C7.23475 10.8077 7.66225 10.7207 8.062 10.5535C7.71417 9.86159 7.54919 9.09219 7.58275 8.3185C7.60479 7.68343 7.75656 7.05958 8.02871 6.48535C8.30086 5.91112 8.68764 5.39866 9.16525 4.9795C7.126 2.87125 3.3025 4.432 3.36625 7.40425C3.36625 9.27625 4.89775 10.8077 6.77725 10.8077ZM19.051 11.3522H16.4012C15.88 11.2412 15.6858 11.6987 15.3348 11.9837C16.295 12.2698 17.1634 12.8028 17.8533 13.5295C18.87 14.5813 19.4509 15.9789 19.4792 17.4415C19.4643 17.8577 19.5205 19.2265 19.4282 19.6188H21.0685C21.7132 19.6188 22.3316 19.3627 22.7876 18.9068C23.2435 18.451 23.4998 17.8327 23.5 17.188V15.8013C23.4984 14.6218 23.0292 13.4911 22.1952 12.6571C21.3612 11.8231 20.2305 11.3538 19.051 11.3522ZM16.627 6.85975C16.852 7.45531 16.9513 8.09096 16.9188 8.72676C16.8862 9.36256 16.7226 9.98476 16.438 10.5543C16.845 10.7238 17.2819 10.81 17.7228 10.8077C22.2303 10.6607 22.2295 4.141 17.7228 4C16.8292 4.00119 15.9718 4.35288 15.3348 4.9795C15.9165 5.48787 16.3609 6.13448 16.627 6.85975Z" fill="#4888FF" fill-opacity="0.5"/>
</svg>
