<svg width="8" height="14" viewBox="0 0 8 14" fill="none" xmlns="http://www.w3.org/2000/svg">
<path d="M6.33604 6.92177e-06H1.6634C1.44479 -0.000624644 1.2282 0.0419693 1.0261 0.125339C0.824006 0.208709 0.640383 0.33121 0.485797 0.485797C0.33121 0.640383 0.208709 0.824006 0.125339 1.0261C0.0419692 1.2282 -0.000624644 1.44479 6.9218e-06 1.66341V11.6438C6.9218e-06 12.5662 0.756097 13.3072 1.6634 13.3072H6.33604C6.55466 13.3078 6.77125 13.2652 6.97334 13.1819C7.17544 13.0985 7.35906 12.976 7.51365 12.8214C7.66824 12.6668 7.79074 12.4832 7.87411 12.2811C7.95748 12.079 8.00007 11.8624 7.99944 11.6438V1.66341C8.00007 1.44479 7.95748 1.2282 7.87411 1.0261C7.79074 0.824006 7.66824 0.640383 7.51365 0.485797C7.35906 0.33121 7.17544 0.208709 6.97334 0.125339C6.77125 0.0419693 6.55466 -0.000624644 6.33604 6.92177e-06ZM4.00728 12.2335C3.58387 12.2335 3.25119 11.9009 3.25119 11.4775C3.25119 11.054 3.58387 10.7214 4.00728 10.7214C4.4307 10.7214 4.76337 11.054 4.76337 11.4775C4.76337 11.9009 4.4307 12.2335 4.00728 12.2335ZM7.24335 9.91991H0.756097V2.22291H7.24335V9.91991Z" fill="#343A3F" fill-opacity="0.5"/>
</svg>
