<svg width="24" height="24" viewBox="0 0 24 24" fill="none" xmlns="http://www.w3.org/2000/svg">
<path d="M18.0459 0H6.10727C5.49495 0 5 0.495781 5 1.10727V22.8923C5 23.5042 5.49539 24 6.10727 24H18.0458C18.6573 24 19.1532 23.5042 19.1532 22.8923V1.10727C19.1535 0.495386 18.6574 0 18.0459 0ZM10.8532 1.30677H13.2991C13.427 1.30677 13.53 1.4099 13.53 1.5377C13.53 1.6655 13.427 1.76863 13.2991 1.76863H10.8532C10.7262 1.76863 10.6223 1.6655 10.6223 1.5377C10.6223 1.4099 10.7262 1.30677 10.8532 1.30677ZM13.5535 22.0302H10.5992C10.357 22.0302 10.1604 21.834 10.1604 21.5918C10.1604 21.3496 10.357 21.1534 10.5992 21.1534H13.5535C13.7957 21.1534 13.9914 21.3496 13.9914 21.5918C13.9915 21.8341 13.7962 22.0302 13.5535 22.0302ZM17.7692 19.446H6.38391V3.7535H17.7692V19.446Z" fill="#4888FF" fill-opacity="0.5"/>
</svg>
