<svg width="24" height="24" viewBox="0 0 24 24" fill="none" xmlns="http://www.w3.org/2000/svg">
<path d="M15.4773 18.6099C15.4773 17.3269 14.6693 16.5809 13.1203 15.2659C12.7703 14.9659 12.3923 14.6479 12.0023 14.2939C11.5573 14.7029 11.1343 15.0629 10.7463 15.3939C9.20032 16.6999 8.52332 17.3389 8.52332 18.6099C8.52332 19.5321 8.88964 20.4165 9.54171 21.0686C10.1938 21.7206 11.0782 22.0869 12.0003 22.0869C12.9225 22.0869 13.8069 21.7206 14.4589 21.0686C15.111 20.4165 15.4773 19.5321 15.4773 18.6099Z" fill="#4888FF" fill-opacity="0.5"/>
<path d="M15.9294 4.035C14.7294 3.016 13.4894 1.963 12.2354 0.71L11.5214 0L10.8214 0.711C8.56742 2.973 7.50142 6.447 7.03942 8.531C6.6849 7.98206 6.42181 7.37922 6.26042 6.746L5.83342 5.109L4.60042 6.266C2.44142 8.294 1.00042 10.305 1.00042 13.525C0.979657 15.8485 1.73597 18.1123 3.1492 19.9568C4.56243 21.8012 6.55151 23.1205 8.80042 23.705C9.36549 23.8482 9.94092 23.9468 10.5214 24C9.26269 23.7654 8.12551 23.0983 7.30654 22.1141C6.48757 21.1299 6.0383 19.8904 6.03642 18.61C6.03642 16.36 7.39342 15.21 8.96442 13.868C9.52542 13.391 10.1644 12.85 10.8094 12.201L11.5214 11.493L12.2294 12.201C12.8054 12.777 13.3814 13.265 13.9384 13.739C15.5144 15.076 17.0024 16.339 17.0024 18.61C17.0008 19.8853 16.5552 21.1203 15.742 22.1028C14.9289 23.0853 13.799 23.754 12.5464 23.994C15.147 23.7417 17.5603 22.5298 19.3158 20.5946C21.0712 18.6594 22.0429 16.1398 22.0414 13.527C22.0414 9.225 19.2084 6.82 15.9294 4.035Z" fill="#4888FF" fill-opacity="0.5"/>
</svg>
