<svg width="24" height="21" viewBox="0 0 24 21" fill="none" xmlns="http://www.w3.org/2000/svg">
<path d="M23.53 0.380363C23.3401 0.206556 23.1073 0.0864414 22.8556 0.0323591C22.6039 -0.0217231 22.3423 -0.0078241 22.0978 0.0726286L0.995214 7.02893C0.420104 7.21849 0.0301044 7.73186 0.00165128 8.33669C-0.026755 8.94157 0.313323 9.4893 0.868042 9.73207L6.08687 12.0154L7.66145 19.3183C7.72684 19.6217 7.88082 19.8919 8.20703 19.975C8.53698 20.0591 8.77009 19.8788 9.01628 19.6945L12.8891 16.7945L17.4167 20.4995C17.6804 20.7154 18.0027 20.828 18.3314 20.828C18.4906 20.8278 18.6487 20.8016 18.7995 20.7503C19.276 20.5887 19.6292 20.1998 19.7444 19.71L23.9616 1.78024C24.0204 1.5296 24.0114 1.26783 23.9356 1.02181C23.8597 0.775792 23.7197 0.554396 23.53 0.380363ZM9.35364 13.3239C9.35106 13.33 9.34853 13.3368 9.34614 13.3451L8.47313 16.3952L7.49889 11.8766L14.1981 8.15454L9.51432 13.0519C9.44087 13.1293 9.38593 13.2222 9.35364 13.3239ZM9.63071 17.4735L10.0272 16.0881L10.4065 14.763L11.7654 15.875L9.63071 17.4735ZM22.5894 1.45746L18.3723 19.3872C18.3702 19.3961 18.3674 19.4084 18.3468 19.4154C18.3264 19.4223 18.3164 19.4144 18.3094 19.4086L13.3551 15.3545L13.3547 15.3542L11.0593 13.4758L18.4338 5.76494C18.5504 5.64307 18.6194 5.48345 18.6283 5.31505C18.6372 5.14666 18.5854 4.98066 18.4824 4.84718C18.3793 4.71368 18.2318 4.62156 18.0666 4.58754C17.9015 4.55352 17.7296 4.57987 17.5822 4.66178L6.66259 10.7288L1.43307 8.44066C1.41714 8.43372 1.40837 8.42983 1.40964 8.40288C1.4109 8.37602 1.42 8.37297 1.4365 8.36753L22.5391 1.41128C22.5493 1.40796 22.5608 1.40411 22.5778 1.41958C22.5947 1.43514 22.5919 1.44696 22.5894 1.45746Z" fill="#343A3F"/>
</svg>
